<?xml version="1.0" standalone="no"?>
<!DOCTYPE svg PUBLIC "-//W3C//DTD SVG 20010904//EN"
 "http://www.w3.org/TR/2001/REC-SVG-20010904/DTD/svg10.dtd">
<svg version="1.0" xmlns="http://www.w3.org/2000/svg"
 width="16.000000pt" height="16.000000pt" viewBox="0 0 16.000000 16.000000"
 preserveAspectRatio="xMidYMid meet">
<metadata>
Created by potrace 1.11, written by Peter Selinger 2001-2013
</metadata>
<g transform="translate(0.000000,16.000000) scale(0.006375,-0.006375)"
fill="#000000" stroke="none">
<path d="M1010 2484 c-58 -12 -123 -29 -145 -37 l-40 -14 -6 -89 c-9 -117 -14
-147 -39 -218 -49 -144 -122 -223 -329 -361 -86 -57 -180 -127 -209 -157 -99
-99 -159 -225 -186 -393 -20 -129 -14 -222 24 -338 17 -55 33 -97 35 -95 1 1
6 23 9 48 23 171 85 341 171 470 88 133 179 212 450 392 169 112 246 180 302
266 85 132 123 298 114 514 -1 44 2 43 -151 12z"/>
<path d="M1271 2408 c-1 -152 -16 -244 -58 -361 -66 -184 -168 -292 -453 -481
-130 -87 -219 -154 -265 -200 -64 -64 -135 -154 -135 -171 0 -4 -9 -20 -20
-35 -50 -70 -111 -314 -125 -496 l-6 -81 60 -79 c70 -93 139 -170 145 -163 3
2 8 29 11 59 12 114 39 238 72 333 82 237 192 378 473 606 227 185 347 329
411 495 36 93 64 199 74 275 4 30 9 63 11 75 2 12 6 85 9 164 3 107 1 142 -8
143 -7 0 -21 2 -32 4 -11 3 -52 7 -92 10 l-71 6 -1 -103z"/>
<path d="M1590 2443 c-2 -74 -10 -234 -14 -263 -3 -19 -8 -55 -11 -80 -17
-126 -60 -268 -117 -384 -77 -158 -184 -280 -393 -450 -61 -50 -117 -97 -126
-105 -9 -9 -41 -39 -70 -66 -192 -180 -296 -410 -325 -715 -14 -152 -19 -133
47 -177 54 -37 209 -117 215 -110 4 4 10 44 19 145 15 161 62 337 125 463 84
170 174 274 400 462 163 137 251 222 308 299 116 155 181 341 207 593 8 78 13
255 8 276 -6 20 -93 67 -191 103 -87 31 -82 30 -82 9z"/>
<path d="M647 2347 c-199 -112 -386 -311 -491 -524 -42 -84 -100 -242 -93
-250 2 -2 17 15 32 37 46 67 137 143 288 244 170 113 227 167 273 261 33 69
59 186 52 239 l-3 26 -58 -33z"/>
<path d="M1972 2167 c-2 -50 -5 -103 -7 -117 -2 -14 -6 -50 -10 -80 -10 -87
-52 -255 -85 -337 -78 -194 -187 -329 -425 -526 -261 -215 -365 -339 -435
-517 -28 -70 -58 -172 -66 -224 -3 -22 -7 -43 -9 -46 -6 -10 -18 -140 -19
-210 l-1 -64 35 -8 c68 -16 146 -28 213 -34 l67 -5 1 33 c4 151 50 356 112
493 71 159 170 275 392 461 149 125 215 191 273 269 113 154 175 349 189 601
10 196 11 191 -48 257 -49 55 -154 147 -167 147 -4 0 -8 -42 -10 -93z"/>
<path d="M2309 1853 c0 -16 -2 -35 -3 -43 -2 -8 -6 -44 -10 -80 -20 -191 -91
-389 -187 -527 -71 -100 -139 -166 -335 -330 -228 -190 -317 -316 -383 -538
-11 -38 -23 -86 -26 -105 -13 -80 -19 -138 -20 -180 0 -39 3 -45 20 -44 48 2
166 27 243 50 l82 25 1 47 c0 69 8 127 29 218 46 200 135 321 323 442 215 138
288 209 335 325 37 92 51 167 58 318 6 123 4 144 -15 209 -23 75 -95 240 -105
240 -3 0 -6 -12 -7 -27z"/>
<path d="M2425 968 c-40 -69 -125 -143 -277 -244 -217 -144 -275 -215 -318
-392 -20 -82 -32 -192 -21 -192 4 0 34 16 67 36 273 164 471 429 562 752 22
78 18 91 -13 40z"/>
</g>
</svg>
