<?xml version="1.0" encoding="utf-8"?>
<!-- Generator: Adobe Illustrator 17.0.0, SVG Export Plug-In . SVG Version: 6.00 Build 0)  -->
<!DOCTYPE svg PUBLIC "-//W3C//DTD SVG 1.1//EN" "http://www.w3.org/Graphics/SVG/1.1/DTD/svg11.dtd">
<svg version="1.1" id="_x32_4_1_" xmlns="http://www.w3.org/2000/svg" xmlns:xlink="http://www.w3.org/1999/xlink" x="0px" y="0px"
	 width="298px" height="298px" viewBox="0 0 298 298" enable-background="new 0 0 298 298" xml:space="preserve">
<g>
	<g>
		<path fill="#0395EA" d="M166.359,97.136h-27.151V79.241h23.14v-5.939h-23.14V55.947h27.151v-6.248H132.42v53.686h33.939V97.136z
			 M147.485,145.512c0.312-0.876,0.468-1.734,0.468-2.574c0-1.128-0.192-2.112-0.576-2.952s-0.912-1.542-1.584-2.106
			s-1.464-0.99-2.376-1.278s-1.896-0.432-2.952-0.432c-0.936,0-1.836,0.156-2.7,0.468s-1.632,0.768-2.304,1.368
			c-0.672,0.6-1.23,1.32-1.674,2.16s-0.738,1.776-0.882,2.808l4.104,0.648c0.168-1.152,0.564-2.028,1.188-2.628
			c0.624-0.6,1.38-0.9,2.268-0.9c1.08,0,1.884,0.312,2.412,0.936c0.528,0.624,0.792,1.332,0.792,2.124
			c0,0.888-0.348,1.776-1.044,2.664l-9.864,11.88v3.708h15.048v-3.96h-9.612l7.956-9.576
			C146.729,147.175,147.172,146.389,147.485,145.512z M197.997,97.908c1.61,1.801,3.612,3.24,6.003,4.32s5.18,1.62,8.369,1.62
			c4.37,0,8.072-1.003,11.107-3.008c3.034-2.005,5.219-4.808,6.556-8.408l-6.325-3.085c-0.875,2.418-2.275,4.358-4.204,5.824
			c-1.928,1.466-4.281,2.198-7.058,2.198c-2.109,0-3.934-0.398-5.476-1.196c-1.543-0.797-2.829-1.838-3.857-3.124
			c-1.029-1.285-1.801-2.764-2.314-4.435c-0.515-1.67-0.771-3.406-0.771-5.207V69.445c0-1.697,0.257-3.367,0.771-5.014
			c0.513-1.645,1.285-3.098,2.314-4.358c1.028-1.26,2.314-2.276,3.857-3.047s3.367-1.157,5.476-1.157
			c2.777,0,5.116,0.694,7.019,2.083c1.902,1.388,3.29,3.24,4.165,5.554l6.325-2.854c-1.388-3.445-3.575-6.196-6.556-8.253
			c-2.983-2.056-6.66-3.085-11.03-3.085c-3.189,0-5.978,0.54-8.369,1.62c-2.391,1.08-4.393,2.533-6.003,4.358
			c-1.611,1.826-2.807,3.934-3.587,6.325c-0.781,2.391-1.17,4.898-1.17,7.521v14.81c0,2.674,0.389,5.22,1.17,7.636
			C195.19,94,196.386,96.108,197.997,97.908z M149,0C66.71,0,0,66.71,0,149s66.71,149,149,149s149-66.71,149-149S231.29,0,149,0z
			 M149.5,292C70.799,292,7,228.201,7,149.5S70.799,7,149.5,7S292,70.799,292,149.5S228.201,292,149.5,292z M225.636,163.974
			l-0.231,0.154l-7.79-12.882l-18.898-29.234h-6.711v53.686h6.788v-41.884l0.231-0.077l7.113,11.724l19.636,30.237h6.649v-53.686
			h-6.788L225.636,163.974L225.636,163.974z M165.016,147.006h-4.14v6.948h-6.084l8.568-17.604h-4.572l-8.676,17.892v3.528h10.764
			v3.636h4.14v-3.636h2.052v-3.816h-2.052V147.006z"/>
	</g>
</g>
</svg>
